<?xml version="1.0" encoding="UTF-8" standalone="no"?>
<!DOCTYPE svg PUBLIC "-//W3C//DTD SVG 1.1//EN"
 "http://www.w3.org/Graphics/SVG/1.1/DTD/svg11.dtd">
<!-- Generated by graphviz version 2.34.0 (20130907.0231)
 -->
<!-- Title: controllers_diagram Pages: 1 -->
<svg width="551pt" height="690pt"
 viewBox="0.00 0.00 550.90 690.49" xmlns="http://www.w3.org/2000/svg" xmlns:xlink="http://www.w3.org/1999/xlink">
<g id="graph0" class="graph" transform="scale(1 1) rotate(0) translate(4 686.492)">
<title>controllers_diagram</title>
<polygon fill="white" stroke="white" points="-4,4 -4,-686.492 546.899,-686.492 546.899,4 -4,4"/>
<!-- _diagram_info -->
<g id="node1" class="node"><title>_diagram_info</title>
<text text-anchor="start" x="344" y="-279" font-family="Times,serif" font-size="13.00">Controllers diagram</text>
<text text-anchor="start" x="344" y="-263.4" font-family="Times,serif" font-size="13.00">Date: Apr 10 2014 &#45; 17:06</text>
<text text-anchor="start" x="344" y="-247.8" font-family="Times,serif" font-size="13.00">Migration version: 20140331101932</text>
<text text-anchor="start" x="344" y="-232.2" font-family="Times,serif" font-size="13.00">Generated by RailRoady 1.1.1</text>
<text text-anchor="start" x="344" y="-216.6" font-family="Times,serif" font-size="13.00">http://railroady.prestonlee.com</text>
</g>
<!-- ApplicationController -->
<g id="node2" class="node"><title>ApplicationController</title>
<path fill="none" stroke="black" d="M60.3824,-257.792C60.3824,-257.792 237.411,-257.792 237.411,-257.792 243.411,-257.792 249.411,-263.792 249.411,-269.792 249.411,-269.792 249.411,-344.192 249.411,-344.192 249.411,-350.192 243.411,-356.192 237.411,-356.192 237.411,-356.192 60.3824,-356.192 60.3824,-356.192 54.3824,-356.192 48.3824,-350.192 48.3824,-344.192 48.3824,-344.192 48.3824,-269.792 48.3824,-269.792 48.3824,-263.792 54.3824,-257.792 60.3824,-257.792"/>
<text text-anchor="middle" x="148.897" y="-338.192" font-family="Times,serif" font-size="14.00">ApplicationController</text>
<polyline fill="none" stroke="black" points="48.3824,-331.392 249.411,-331.392 "/>
<text text-anchor="start" x="56.3824" y="-313.392" font-family="Times,serif" font-size="14.00">authenticate_active_admin_user!</text>
<polyline fill="none" stroke="black" points="48.3824,-306.592 249.411,-306.592 "/>
<polyline fill="none" stroke="black" points="48.3824,-282.592 249.411,-282.592 "/>
<text text-anchor="start" x="56.3824" y="-264.592" font-family="Times,serif" font-size="14.00">_layout</text>
</g>
<!-- ProjectsController -->
<g id="node3" class="node"><title>ProjectsController</title>
<path fill="none" stroke="black" d="M267.157,-365.192C267.157,-365.192 361.805,-365.192 361.805,-365.192 367.805,-365.192 373.805,-371.192 373.805,-377.192 373.805,-377.192 373.805,-669.992 373.805,-669.992 373.805,-675.992 367.805,-681.992 361.805,-681.992 361.805,-681.992 267.157,-681.992 267.157,-681.992 261.157,-681.992 255.157,-675.992 255.157,-669.992 255.157,-669.992 255.157,-377.192 255.157,-377.192 255.157,-371.192 261.157,-365.192 267.157,-365.192"/>
<text text-anchor="middle" x="314.481" y="-663.992" font-family="Times,serif" font-size="14.00">ProjectsController</text>
<polyline fill="none" stroke="black" points="255.157,-657.192 373.805,-657.192 "/>
<text text-anchor="start" x="263.157" y="-639.192" font-family="Times,serif" font-size="14.00">carbon</text>
<text text-anchor="start" x="263.157" y="-622.392" font-family="Times,serif" font-size="14.00">chp</text>
<text text-anchor="start" x="263.157" y="-605.592" font-family="Times,serif" font-size="14.00">create</text>
<text text-anchor="start" x="263.157" y="-588.792" font-family="Times,serif" font-size="14.00">destroy</text>
<text text-anchor="start" x="263.157" y="-571.992" font-family="Times,serif" font-size="14.00">digestate</text>
<text text-anchor="start" x="263.157" y="-555.192" font-family="Times,serif" font-size="14.00">edit</text>
<text text-anchor="start" x="263.157" y="-538.392" font-family="Times,serif" font-size="14.00">index</text>
<text text-anchor="start" x="263.157" y="-521.592" font-family="Times,serif" font-size="14.00">new</text>
<text text-anchor="start" x="263.157" y="-504.792" font-family="Times,serif" font-size="14.00">report</text>
<text text-anchor="start" x="263.157" y="-487.992" font-family="Times,serif" font-size="14.00">show</text>
<text text-anchor="start" x="263.157" y="-471.192" font-family="Times,serif" font-size="14.00">update</text>
<text text-anchor="start" x="263.157" y="-454.392" font-family="Times,serif" font-size="14.00">upgrading</text>
<polyline fill="none" stroke="black" points="255.157,-447.592 373.805,-447.592 "/>
<polyline fill="none" stroke="black" points="255.157,-423.592 373.805,-423.592 "/>
<text text-anchor="start" x="263.157" y="-405.592" font-family="Times,serif" font-size="14.00">_layout</text>
<text text-anchor="start" x="263.157" y="-388.792" font-family="Times,serif" font-size="14.00">project_params</text>
<text text-anchor="start" x="263.157" y="-371.992" font-family="Times,serif" font-size="14.00">set_project</text>
</g>
<!-- ApplicationController&#45;&gt;ProjectsController -->
<g id="edge1" class="edge"><title>ApplicationController&#45;&gt;ProjectsController</title>
<path fill="none" stroke="black" d="M186.677,-356.413C205.964,-381.642 229.934,-412.996 251.885,-441.711"/>
<polyline fill="none" stroke="black" points="255.109,-445.928 252.072,-441.955 "/>
</g>
<!-- VisitorsController -->
<g id="node4" class="node"><title>VisitorsController</title>
<path fill="none" stroke="black" d="M12,-0.5C12,-0.5 105.049,-0.5 105.049,-0.5 111.049,-0.5 117.049,-6.5 117.049,-12.5 117.049,-12.5 117.049,-86.9 117.049,-86.9 117.049,-92.9 111.049,-98.9 105.049,-98.9 105.049,-98.9 12,-98.9 12,-98.9 6,-98.9 0,-92.9 0,-86.9 0,-86.9 0,-12.5 0,-12.5 0,-6.5 6,-0.5 12,-0.5"/>
<text text-anchor="middle" x="58.5244" y="-80.9" font-family="Times,serif" font-size="14.00">VisitorsController</text>
<polyline fill="none" stroke="black" points="0,-74.1 117.049,-74.1 "/>
<text text-anchor="start" x="8" y="-56.1" font-family="Times,serif" font-size="14.00">new</text>
<polyline fill="none" stroke="black" points="0,-49.3 117.049,-49.3 "/>
<polyline fill="none" stroke="black" points="0,-25.3 117.049,-25.3 "/>
<text text-anchor="start" x="8" y="-7.3" font-family="Times,serif" font-size="14.00">_layout</text>
</g>
<!-- ApplicationController&#45;&gt;VisitorsController -->
<g id="edge2" class="edge"><title>ApplicationController&#45;&gt;VisitorsController</title>
<path fill="none" stroke="black" d="M131.579,-257.688C116.15,-213.763 93.6103,-149.591 77.6546,-104.164"/>
<polyline fill="none" stroke="black" points="75.9374,-99.2752 77.5944,-103.993 "/>
</g>
</g>
</svg>
