<?xml version="1.0" encoding="UTF-8" standalone="no"?>
<!DOCTYPE svg PUBLIC "-//W3C//DTD SVG 1.1//EN"
 "http://www.w3.org/Graphics/SVG/1.1/DTD/svg11.dtd">
<!-- Generated by graphviz version 2.34.0 (20130907.0231)
 -->
<!-- Title: models_diagram Pages: 1 -->
<svg width="572pt" height="760pt"
 viewBox="0.00 0.00 572.00 760.00" xmlns="http://www.w3.org/2000/svg" xmlns:xlink="http://www.w3.org/1999/xlink">
<g id="graph0" class="graph" transform="scale(1 1) rotate(0) translate(4 756)">
<title>models_diagram</title>
<polygon fill="white" stroke="white" points="-4,4 -4,-756 568,-756 568,4 -4,4"/>
<!-- _diagram_info -->
<g id="node1" class="node"><title>_diagram_info</title>
<text text-anchor="start" x="7.55029" y="-735" font-family="Times,serif" font-size="13.00">Models diagram</text>
<text text-anchor="start" x="7.55029" y="-719.4" font-family="Times,serif" font-size="13.00">Date: Apr 10 2014 &#45; 17:05</text>
<text text-anchor="start" x="7.55029" y="-703.8" font-family="Times,serif" font-size="13.00">Migration version: 20140331101932</text>
<text text-anchor="start" x="7.55029" y="-688.2" font-family="Times,serif" font-size="13.00">Generated by RailRoady 1.1.1</text>
<text text-anchor="start" x="7.55029" y="-672.6" font-family="Times,serif" font-size="13.00">http://railroady.prestonlee.com</text>
</g>
<!-- Calculation -->
<g id="node2" class="node"><title>Calculation</title>
<path fill="none" stroke="black" d="M239.105,-1.2C239.105,-1.2 348.895,-1.2 348.895,-1.2 354.895,-1.2 360.895,-7.2 360.895,-13.2 360.895,-13.2 360.895,-122.8 360.895,-122.8 360.895,-128.8 354.895,-134.8 348.895,-134.8 348.895,-134.8 239.105,-134.8 239.105,-134.8 233.105,-134.8 227.105,-128.8 227.105,-122.8 227.105,-122.8 227.105,-13.2 227.105,-13.2 227.105,-7.2 233.105,-1.2 239.105,-1.2"/>
<text text-anchor="middle" x="294" y="-116.8" font-family="Times,serif" font-size="14.00">Calculation</text>
<polyline fill="none" stroke="black" points="227.105,-110 360.895,-110 "/>
<text text-anchor="start" x="235.105" y="-92" font-family="Times,serif" font-size="14.00">id :integer</text>
<text text-anchor="start" x="235.105" y="-75.2" font-family="Times,serif" font-size="14.00">feedstock_id :integer</text>
<text text-anchor="start" x="235.105" y="-58.4" font-family="Times,serif" font-size="14.00">project_id :integer</text>
<text text-anchor="start" x="235.105" y="-41.6" font-family="Times,serif" font-size="14.00">tonnes :decimal</text>
<text text-anchor="start" x="235.105" y="-24.8" font-family="Times,serif" font-size="14.00">created_at :datetime</text>
<text text-anchor="start" x="235.105" y="-8" font-family="Times,serif" font-size="14.00">updated_at :datetime</text>
</g>
<!-- Feedstock -->
<g id="node3" class="node"><title>Feedstock</title>
<path fill="none" stroke="black" d="M222.384,-172.8C222.384,-172.8 365.616,-172.8 365.616,-172.8 371.616,-172.8 377.616,-178.8 377.616,-184.8 377.616,-184.8 377.616,-311.2 377.616,-311.2 377.616,-317.2 371.616,-323.2 365.616,-323.2 365.616,-323.2 222.384,-323.2 222.384,-323.2 216.384,-323.2 210.384,-317.2 210.384,-311.2 210.384,-311.2 210.384,-184.8 210.384,-184.8 210.384,-178.8 216.384,-172.8 222.384,-172.8"/>
<text text-anchor="middle" x="294" y="-305.2" font-family="Times,serif" font-size="14.00">Feedstock</text>
<polyline fill="none" stroke="black" points="210.384,-298.4 377.616,-298.4 "/>
<text text-anchor="start" x="218.384" y="-280.4" font-family="Times,serif" font-size="14.00">id :integer</text>
<text text-anchor="start" x="218.384" y="-263.6" font-family="Times,serif" font-size="14.00">type :string</text>
<text text-anchor="start" x="218.384" y="-246.8" font-family="Times,serif" font-size="14.00">biogas_per_tonne :decimal</text>
<text text-anchor="start" x="218.384" y="-230" font-family="Times,serif" font-size="14.00">methane_percent :decimal</text>
<text text-anchor="start" x="218.384" y="-213.2" font-family="Times,serif" font-size="14.00">digestate_percent :decimal</text>
<text text-anchor="start" x="218.384" y="-196.4" font-family="Times,serif" font-size="14.00">created_at :datetime</text>
<text text-anchor="start" x="218.384" y="-179.6" font-family="Times,serif" font-size="14.00">updated_at :datetime</text>
</g>
<!-- Feedstock&#45;&gt;Calculation -->
<g id="edge2" class="edge"><title>Feedstock&#45;&gt;Calculation</title>
<path fill="none" stroke="#94ddbb" d="M294,-164.308C294,-158 294,-151.65 294,-145.385"/>
<ellipse fill="none" stroke="#94ddbb" cx="294" cy="-168.543" rx="4" ry="4"/>
<polygon fill="#94ddbb" stroke="#94ddbb" points="294,-144.945 298.5,-134.945 294,-139.945 294,-134.945 294,-134.945 294,-134.945 294,-139.945 289.5,-134.945 294,-144.945 294,-144.945"/>
</g>
<!-- Project -->
<g id="node4" class="node"><title>Project</title>
<path fill="none" stroke="black" d="M407.495,-189.6C407.495,-189.6 516.505,-189.6 516.505,-189.6 522.505,-189.6 528.505,-195.6 528.505,-201.6 528.505,-201.6 528.505,-294.4 528.505,-294.4 528.505,-300.4 522.505,-306.4 516.505,-306.4 516.505,-306.4 407.495,-306.4 407.495,-306.4 401.495,-306.4 395.495,-300.4 395.495,-294.4 395.495,-294.4 395.495,-201.6 395.495,-201.6 395.495,-195.6 401.495,-189.6 407.495,-189.6"/>
<text text-anchor="middle" x="462" y="-288.4" font-family="Times,serif" font-size="14.00">Project</text>
<polyline fill="none" stroke="black" points="395.495,-281.6 528.505,-281.6 "/>
<text text-anchor="start" x="403.495" y="-263.6" font-family="Times,serif" font-size="14.00">id :integer</text>
<text text-anchor="start" x="403.495" y="-246.8" font-family="Times,serif" font-size="14.00">name :string</text>
<text text-anchor="start" x="403.495" y="-230" font-family="Times,serif" font-size="14.00">created_at :datetime</text>
<text text-anchor="start" x="403.495" y="-213.2" font-family="Times,serif" font-size="14.00">updated_at :datetime</text>
<text text-anchor="start" x="403.495" y="-196.4" font-family="Times,serif" font-size="14.00">user_id :integer</text>
</g>
<!-- Project&#45;&gt;Calculation -->
<g id="edge4" class="edge"><title>Project&#45;&gt;Calculation</title>
<path fill="none" stroke="#181029" d="M401.63,-183.036C389.158,-169.822 375.929,-155.806 363.171,-142.289"/>
<ellipse fill="none" stroke="#181029" cx="404.71" cy="-186.3" rx="4.00002" ry="4.00002"/>
<polygon fill="#181029" stroke="#181029" points="363.004,-142.111 359.413,-131.75 359.572,-138.475 356.14,-134.839 356.14,-134.839 356.14,-134.839 359.572,-138.475 352.868,-137.928 363.004,-142.111 363.004,-142.111"/>
</g>
<!-- User -->
<g id="node5" class="node"><title>User</title>
<path fill="none" stroke="black" d="M371.722,-361C371.722,-361 552.278,-361 552.278,-361 558.278,-361 564.278,-367 564.278,-373 564.278,-373 564.278,-617 564.278,-617 564.278,-623 558.278,-629 552.278,-629 552.278,-629 371.722,-629 371.722,-629 365.722,-629 359.722,-623 359.722,-617 359.722,-617 359.722,-373 359.722,-373 359.722,-367 365.722,-361 371.722,-361"/>
<text text-anchor="middle" x="462" y="-611" font-family="Times,serif" font-size="14.00">User</text>
<polyline fill="none" stroke="black" points="359.722,-604.2 564.278,-604.2 "/>
<text text-anchor="start" x="367.722" y="-586.2" font-family="Times,serif" font-size="14.00">id :integer</text>
<text text-anchor="start" x="367.722" y="-569.4" font-family="Times,serif" font-size="14.00">email :string</text>
<text text-anchor="start" x="367.722" y="-552.6" font-family="Times,serif" font-size="14.00">encrypted_password :string</text>
<text text-anchor="start" x="367.722" y="-535.8" font-family="Times,serif" font-size="14.00">reset_password_token :string</text>
<text text-anchor="start" x="367.722" y="-519" font-family="Times,serif" font-size="14.00">reset_password_sent_at :datetime</text>
<text text-anchor="start" x="367.722" y="-502.2" font-family="Times,serif" font-size="14.00">remember_created_at :datetime</text>
<text text-anchor="start" x="367.722" y="-485.4" font-family="Times,serif" font-size="14.00">sign_in_count :integer</text>
<text text-anchor="start" x="367.722" y="-468.6" font-family="Times,serif" font-size="14.00">current_sign_in_at :datetime</text>
<text text-anchor="start" x="367.722" y="-451.8" font-family="Times,serif" font-size="14.00">last_sign_in_at :datetime</text>
<text text-anchor="start" x="367.722" y="-435" font-family="Times,serif" font-size="14.00">current_sign_in_ip :string</text>
<text text-anchor="start" x="367.722" y="-418.2" font-family="Times,serif" font-size="14.00">last_sign_in_ip :string</text>
<text text-anchor="start" x="367.722" y="-401.4" font-family="Times,serif" font-size="14.00">created_at :datetime</text>
<text text-anchor="start" x="367.722" y="-384.6" font-family="Times,serif" font-size="14.00">updated_at :datetime</text>
<text text-anchor="start" x="367.722" y="-367.8" font-family="Times,serif" font-size="14.00">superadmin :boolean</text>
</g>
<!-- User&#45;&gt;Project -->
<g id="edge6" class="edge"><title>User&#45;&gt;Project</title>
<path fill="none" stroke="#cf8427" d="M462,-352.723C462,-340.258 462,-328.06 462,-316.659"/>
<ellipse fill="none" stroke="#cf8427" cx="462" cy="-356.746" rx="4" ry="4"/>
<polygon fill="#cf8427" stroke="#cf8427" points="462,-316.43 466.5,-306.429 462,-311.43 462,-306.43 462,-306.43 462,-306.43 462,-311.43 457.5,-306.43 462,-316.43 462,-316.43"/>
</g>
<!-- ActiveRecord::Base -->
<g id="node6" class="node"><title>ActiveRecord::Base</title>
<ellipse fill="none" stroke="black" cx="313" cy="-709" rx="88.2033" ry="18"/>
<text text-anchor="middle" x="313" y="-703.4" font-family="Times,serif" font-size="14.00">ActiveRecord::Base</text>
</g>
<!-- ActiveRecord::Base&#45;&gt;Calculation -->
<g id="edge1" class="edge"><title>ActiveRecord::Base&#45;&gt;Calculation</title>
<path fill="none" stroke="black" d="M302.524,-690.763C262.597,-622.75 125.915,-367.201 201,-172 206.323,-158.161 214.462,-145.023 223.754,-133.05"/>
<polyline fill="none" stroke="black" points="226.948,-129.034 223.835,-132.947 "/>
</g>
<!-- ActiveRecord::Base&#45;&gt;Feedstock -->
<g id="edge3" class="edge"><title>ActiveRecord::Base&#45;&gt;Feedstock</title>
<path fill="none" stroke="black" d="M312.29,-690.844C309.876,-632.53 301.883,-439.438 297.302,-328.771"/>
<polyline fill="none" stroke="black" points="297.087,-323.564 297.293,-328.56 "/>
</g>
<!-- ActiveRecord::Base&#45;&gt;Project -->
<g id="edge5" class="edge"><title>ActiveRecord::Base&#45;&gt;Project</title>
<path fill="none" stroke="black" d="M314.218,-690.628C318.952,-624.415 336.581,-390.073 351,-360 351.86,-358.207 375.025,-334.96 399.97,-310.201"/>
<polyline fill="none" stroke="black" points="403.661,-306.54 400.111,-310.061 "/>
</g>
<!-- ActiveRecord::Base&#45;&gt;User -->
<g id="edge7" class="edge"><title>ActiveRecord::Base&#45;&gt;User</title>
<path fill="none" stroke="black" d="M324.941,-691.01C334.563,-677.32 349.098,-656.64 365.159,-633.788"/>
<polyline fill="none" stroke="black" points="368.174,-629.497 365.299,-633.587 "/>
</g>
</g>
</svg>
