<?xml version="1.0" encoding="UTF-8" standalone="no"?>
<!DOCTYPE svg PUBLIC "-//W3C//DTD SVG 1.1//EN"
 "http://www.w3.org/Graphics/SVG/1.1/DTD/svg11.dtd">
<!-- Generated by graphviz version 2.34.0 (20130907.0231)
 -->
<!-- Title: models_diagram Pages: 1 -->
<svg width="444pt" height="310pt"
 viewBox="0.00 0.00 444.00 310.00" xmlns="http://www.w3.org/2000/svg" xmlns:xlink="http://www.w3.org/1999/xlink">
<g id="graph0" class="graph" transform="scale(1 1) rotate(0) translate(4 306)">
<title>models_diagram</title>
<polygon fill="white" stroke="white" points="-4,4 -4,-306 440,-306 440,4 -4,4"/>
<!-- _diagram_info -->
<g id="node1" class="node"><title>_diagram_info</title>
<text text-anchor="start" x="7.55029" y="-285" font-family="Times,serif" font-size="13.00">Models diagram</text>
<text text-anchor="start" x="7.55029" y="-269.4" font-family="Times,serif" font-size="13.00">Date: Apr 10 2014 &#45; 17:05</text>
<text text-anchor="start" x="7.55029" y="-253.8" font-family="Times,serif" font-size="13.00">Migration version: 20140331101932</text>
<text text-anchor="start" x="7.55029" y="-238.2" font-family="Times,serif" font-size="13.00">Generated by RailRoady 1.1.1</text>
<text text-anchor="start" x="7.55029" y="-222.6" font-family="Times,serif" font-size="13.00">http://railroady.prestonlee.com</text>
</g>
<!-- Calculation -->
<g id="node2" class="node"><title>Calculation</title>
<ellipse fill="none" stroke="black" cx="291" cy="-18" rx="55.3303" ry="18"/>
<text text-anchor="middle" x="291" y="-12.4" font-family="Times,serif" font-size="14.00">Calculation</text>
</g>
<!-- Feedstock -->
<g id="node3" class="node"><title>Feedstock</title>
<ellipse fill="none" stroke="black" cx="291" cy="-90" rx="50.289" ry="18"/>
<text text-anchor="middle" x="291" y="-84.4" font-family="Times,serif" font-size="14.00">Feedstock</text>
</g>
<!-- Feedstock&#45;&gt;Calculation -->
<g id="edge2" class="edge"><title>Feedstock&#45;&gt;Calculation</title>
<path fill="none" stroke="#f80d67" d="M291,-63.6398C291,-58.0629 291,-52.1319 291,-46.4761"/>
<ellipse fill="none" stroke="#f80d67" cx="291" cy="-67.6966" rx="4" ry="4"/>
<polygon fill="#f80d67" stroke="#f80d67" points="291,-46.1043 295.5,-36.1043 291,-41.1043 291,-36.1043 291,-36.1043 291,-36.1043 291,-41.1043 286.5,-36.1044 291,-46.1043 291,-46.1043"/>
</g>
<!-- Project -->
<g id="node4" class="node"><title>Project</title>
<ellipse fill="none" stroke="black" cx="398" cy="-90" rx="38.0859" ry="18"/>
<text text-anchor="middle" x="398" y="-84.4" font-family="Times,serif" font-size="14.00">Project</text>
</g>
<!-- Project&#45;&gt;Calculation -->
<g id="edge4" class="edge"><title>Project&#45;&gt;Calculation</title>
<path fill="none" stroke="#862bb7" d="M369.551,-70.3886C355.342,-61.0929 338.088,-49.8051 323.374,-40.1791"/>
<ellipse fill="none" stroke="#862bb7" cx="373.257" cy="-72.8128" rx="4.00002" ry="4.00002"/>
<polygon fill="#862bb7" stroke="#862bb7" points="322.959,-39.9075 317.054,-30.6671 318.774,-37.1702 314.59,-34.4329 314.59,-34.4329 314.59,-34.4329 318.774,-37.1702 312.127,-38.1986 322.959,-39.9075 322.959,-39.9075"/>
</g>
<!-- User -->
<g id="node5" class="node"><title>User</title>
<ellipse fill="none" stroke="black" cx="396" cy="-162" rx="28.9087" ry="18"/>
<text text-anchor="middle" x="396" y="-156.4" font-family="Times,serif" font-size="14.00">User</text>
</g>
<!-- User&#45;&gt;Project -->
<g id="edge6" class="edge"><title>User&#45;&gt;Project</title>
<path fill="none" stroke="#b135b3" d="M396.725,-135.64C396.884,-130.063 397.053,-124.132 397.215,-118.476"/>
<ellipse fill="none" stroke="#b135b3" cx="396.609" cy="-139.698" rx="4" ry="4"/>
<polygon fill="#b135b3" stroke="#b135b3" points="397.226,-118.1 402.009,-108.233 397.368,-113.102 397.511,-108.104 397.511,-108.104 397.511,-108.104 397.368,-113.102 393.013,-107.976 397.226,-118.1 397.226,-118.1"/>
</g>
<!-- ActiveRecord::Base -->
<g id="node6" class="node"><title>ActiveRecord::Base</title>
<ellipse fill="none" stroke="black" cx="313" cy="-259" rx="88.2033" ry="18"/>
<text text-anchor="middle" x="313" y="-253.4" font-family="Times,serif" font-size="14.00">ActiveRecord::Base</text>
</g>
<!-- ActiveRecord::Base&#45;&gt;Calculation -->
<g id="edge1" class="edge"><title>ActiveRecord::Base&#45;&gt;Calculation</title>
<path fill="none" stroke="black" d="M300.235,-241.174C280.96,-214.597 245.272,-160.509 232,-108 228.079,-92.4878 225.484,-86.6129 232,-72 238.243,-58.0001 250.214,-46.1534 261.75,-37.2348"/>
<polyline fill="none" stroke="black" points="265.97,-34.083 261.964,-37.0754 "/>
</g>
<!-- ActiveRecord::Base&#45;&gt;Feedstock -->
<g id="edge3" class="edge"><title>ActiveRecord::Base&#45;&gt;Feedstock</title>
<path fill="none" stroke="black" d="M310.728,-240.757C306.727,-210.381 298.424,-147.355 293.972,-113.562"/>
<polyline fill="none" stroke="black" points="293.292,-108.399 293.945,-113.356 "/>
</g>
<!-- ActiveRecord::Base&#45;&gt;Project -->
<g id="edge5" class="edge"><title>ActiveRecord::Base&#45;&gt;Project</title>
<path fill="none" stroke="black" d="M318.193,-240.737C325.443,-217.823 339.782,-176.475 358,-144 364.514,-132.388 373.293,-120.465 380.966,-110.876"/>
<polyline fill="none" stroke="black" points="384.177,-106.917 381.028,-110.8 "/>
</g>
<!-- ActiveRecord::Base&#45;&gt;User -->
<g id="edge7" class="edge"><title>ActiveRecord::Base&#45;&gt;User</title>
<path fill="none" stroke="black" d="M327.839,-241.016C342.318,-224.444 364.305,-199.278 379.368,-182.037"/>
<polyline fill="none" stroke="black" points="382.66,-178.268 379.371,-182.034 "/>
</g>
</g>
</svg>
